<?xml version="1.0" encoding="utf-8"?>
<!-- Generator: Adobe Illustrator 24.0.0, SVG Export Plug-In . SVG Version: 6.00 Build 0)  -->
<svg version="1.1" id="Layer_1" xmlns="http://www.w3.org/2000/svg" xmlns:xlink="http://www.w3.org/1999/xlink" x="0px" y="0px"
	 viewBox="0 0 349.4 109.1" style="enable-background:new 0 0 349.4 109.1;" xml:space="preserve">
<style type="text/css">
	.st0{fill:#D10000;}
	.st1{fill:#FFFFFF;}
</style>
<title>Artboard 1</title>
<path class="st0" d="M337.8,31.8H83.7v-9.4l-33-7.2l-33,7.2v29.2c0,35,32.9,42.4,32.9,42.4H51c8.6-2.3,16.4-7.1,22.5-13.7h264.3
	V31.8z"/>
<path class="st1" d="M50.8,89.6l-0.3-0.1c-5-1.6-9.7-4.1-13.9-7.3c-9.5-7.4-14.4-17.7-14.4-30.7V26l28.6-6.3L79.4,26v25.6
	c0,13.1-4.9,23.5-14.7,30.9c-4.1,3.1-8.7,5.4-13.5,7L50.8,89.6z M24.5,27.9v23.7c0,12.2,4.5,21.8,13.5,28.8c3.9,3,8.2,5.3,12.8,6.8
	c4.5-1.5,8.7-3.7,12.4-6.5c9.1-7,13.7-16.7,13.7-29V28l-26.2-5.7L24.5,27.9z"/>
<path class="st1" d="M60.1,44.1h-2V39c0-4.2-3.3-7.6-7.5-7.7c-0.1,0-0.2,0-0.3,0h-1.1c-4.3-0.2-7.9,3.2-8.1,7.5c0,0.1,0,0.1,0,0.2
	v5.1h-1.5c-1.3,0.1-2.4,1.1-2.5,2.4v17.7c0.1,1.2,1.2,2.2,2.5,2.1h20.6c1.2,0,2.3-0.9,2.4-2.1V46.5C62.4,45.2,61.4,44.2,60.1,44.1z
	 M44.2,39.1c0.1-2.7,2.2-4.8,4.9-4.9h1.1c2.7,0,5,2.2,5.1,4.9v5.1H44.2V39.1z M50.9,55.6V59c0,1.2-0.3,1.5-1,1.5s-1-0.3-1-1.5v-3.4
	c-1.3-0.3-2.1-1.4-2-2.7c-0.1-1.6,1.2-2.9,2.8-3h0.1c1.7,0,3,1.3,3,3C52.9,54.1,52.1,55.2,50.9,55.6L50.9,55.6z"/>
<path class="st1" d="M114.5,64.5l-1.7-15.2h3.2l1,11.4l0,0l5.6-11.4h3.4l-7.8,15.2H114.5z"/>
<path class="st1" d="M138.4,49.3l-0.6,2.8h-8l-0.7,3.3h7.4L136,58h-7.4l-0.8,3.7h8.1l-0.6,2.8h-11.2l3.1-15.2H138.4z"/>
<path class="st1" d="M147.9,49.3c0.6,0,1.2,0,1.8,0.2c0.5,0.1,1,0.4,1.4,0.7s0.7,0.8,0.9,1.2c0.2,0.6,0.3,1.2,0.3,1.9
	c0,0.5-0.1,1-0.2,1.5c-0.3,0.9-0.9,1.7-1.8,2.2c-0.4,0.2-0.9,0.4-1.4,0.5l0,0c0.5,0.1,1,0.5,1.2,1s0.3,1.1,0.3,1.6
	c0,0.3,0,0.7-0.1,1.2c0,0.5-0.1,1-0.1,1.4c0,0.3,0,0.7,0,1s0.1,0.5,0.2,0.8h-3.1c0-0.2-0.1-0.4-0.1-0.5c0-0.2,0-0.3,0-0.5
	c0-0.5,0-1,0.1-1.6c0.1-0.5,0.1-1,0.1-1.6c0-0.3,0-0.6-0.1-0.9c-0.1-0.2-0.2-0.4-0.4-0.6c-0.2-0.1-0.4-0.2-0.7-0.3s-0.6-0.1-0.9-0.1
	h-3l-1.2,6h-3.2l3.1-15.2h6.9V49.3z M145.8,56.2c0.4,0,0.8-0.1,1.2-0.2c0.4-0.1,0.7-0.2,1.1-0.4c0.3-0.2,0.6-0.4,0.7-0.8
	c0.2-0.3,0.3-0.7,0.3-1.1c0-0.3,0-0.7-0.2-1c-0.1-0.2-0.3-0.4-0.5-0.6c-0.2-0.1-0.5-0.2-0.8-0.3c-0.3,0-0.6-0.1-0.9-0.1h-3.1
	l-0.9,4.3L145.8,56.2z"/>
<path class="st1" d="M159,49.3l-3.1,15.2h-3.2l3.1-15.2H159z"/>
<path class="st1" d="M172.3,49.3l-0.6,2.8h-7.2l-0.7,3.5h6.2l-0.5,2.6h-6.2l-1.2,6.3h-3.2l3.1-15.2L172.3,49.3z"/>
<path class="st1" d="M177.2,49.3l-3.1,15.2h-3.2l3.1-15.2H177.2z"/>
<path class="st1" d="M191.2,49.3l-0.6,2.8h-8l-0.7,3.3h7.4l-0.5,2.6h-7.4l-0.8,3.7h8.1l-0.6,2.8H177l3-15.2L191.2,49.3L191.2,49.3z"
	/>
<path class="st1" d="M199,49.3c1.7-0.1,3.4,0.4,4.6,1.6c1.1,1.2,1.7,2.8,1.6,4.4c0,1.2-0.2,2.5-0.5,3.7c-0.3,1.1-0.9,2.1-1.6,3
	c-0.7,0.9-1.6,1.5-2.6,2c-1.2,0.5-2.4,0.7-3.7,0.7h-6.1l3.1-15.2L199,49.3z M196.9,61.7c0.8,0,1.5-0.1,2.2-0.5
	c0.6-0.3,1.2-0.7,1.6-1.3c0.4-0.6,0.8-1.2,1-1.9s0.3-1.5,0.3-2.3c0-0.5-0.1-1-0.2-1.5c-0.1-0.4-0.3-0.8-0.6-1.2
	c-0.3-0.3-0.6-0.6-1-0.8c-0.5-0.2-1-0.3-1.5-0.3h-2.4l-2,9.6h2.6L196.9,61.7L196.9,61.7z"/>
<path class="st1" d="M215,60.8c0.1,0.3,0.4,0.6,0.7,0.9c0.3,0.2,0.6,0.4,1,0.5s0.9,0.1,1.3,0.1c0.3,0,0.7,0,1-0.1s0.6-0.2,0.9-0.4
	c0.3-0.2,0.5-0.4,0.7-0.7s0.3-0.6,0.3-1c0-0.3-0.1-0.7-0.3-0.9c-0.2-0.3-0.5-0.5-0.9-0.6c-0.4-0.2-0.8-0.3-1.2-0.4l-1.3-0.4
	c-0.5-0.1-0.9-0.3-1.4-0.5c-0.4-0.2-0.8-0.5-1.2-0.8s-0.6-0.7-0.8-1.1c-0.2-0.5-0.3-1.1-0.3-1.7c0-0.8,0.2-1.5,0.5-2.2
	c0.3-0.6,0.8-1.1,1.3-1.5c0.6-0.4,1.2-0.7,1.9-0.8c0.7-0.2,1.4-0.3,2.1-0.3c0.7,0,1.4,0.1,2.1,0.3c0.6,0.2,1.2,0.4,1.7,0.8
	c0.5,0.4,0.9,0.9,1.2,1.5c0.3,0.7,0.5,1.5,0.4,2.2h-3.1c0-0.4,0-0.7-0.2-1.1c-0.1-0.3-0.3-0.5-0.6-0.7s-0.5-0.3-0.9-0.4
	c-0.7-0.1-1.3-0.1-2,0c-0.3,0.1-0.6,0.2-0.8,0.3s-0.4,0.3-0.6,0.6c-0.2,0.3-0.2,0.6-0.2,0.9c0,0.4,0.1,0.7,0.4,0.9
	c0.3,0.3,0.6,0.5,1,0.6c0.4,0.2,0.8,0.3,1.2,0.4l1,0.2c0.5,0.1,1.1,0.3,1.6,0.5s0.9,0.5,1.2,0.8c0.4,0.3,0.6,0.7,0.8,1.2
	c0.2,0.6,0.3,1.1,0.3,1.7c0,0.8-0.2,1.6-0.5,2.3c-0.3,0.6-0.8,1.2-1.4,1.6c-0.6,0.4-1.2,0.7-1.9,0.9s-1.4,0.3-2.1,0.3
	c-1.6,0.1-3.3-0.3-4.6-1.3c-1.1-1.1-1.6-2.6-1.5-4.1h3.1C214.8,59.9,214.8,60.4,215,60.8z"/>
<path class="st1" d="M239.1,49.3l-0.6,2.8h-8l-0.7,3.3h7.4l-0.5,2.6h-7.4l-0.8,3.7h8.1l-0.6,2.8h-11.2l3.1-15.2L239.1,49.3z"/>
<path class="st1" d="M249.2,52.4c-0.5-0.5-1.2-0.7-1.9-0.7c-0.8,0-1.5,0.2-2.1,0.6c-0.6,0.4-1.1,0.9-1.5,1.5s-0.7,1.3-0.9,2.1
	c-0.2,0.7-0.3,1.5-0.3,2.2c0,0.5,0.1,1,0.2,1.5c0.1,0.4,0.3,0.9,0.6,1.2c0.3,0.4,0.6,0.7,1,0.9c0.5,0.2,1,0.3,1.5,0.3
	c0.4,0,0.8-0.1,1.2-0.2c0.4-0.2,0.7-0.4,1-0.7s0.6-0.6,0.8-1s0.3-0.7,0.4-1.1h3.2c-0.3,0.9-0.7,1.9-1.2,2.7
	c-0.4,0.7-0.9,1.3-1.5,1.8c-0.5,0.5-1.2,0.8-1.8,1c-0.7,0.2-1.5,0.3-2.2,0.3c-1.8,0.1-3.5-0.5-4.8-1.7c-1.2-1.4-1.8-3.2-1.7-5
	c0-1.2,0.2-2.4,0.6-3.5c0.3-1.1,0.9-2.1,1.6-2.9c0.7-0.8,1.5-1.5,2.5-2s2.2-0.8,3.3-0.8c0.8,0,1.6,0.1,2.4,0.4
	c0.7,0.2,1.3,0.6,1.9,1.1c0.5,0.5,1,1.1,1.2,1.8c0.3,0.8,0.4,1.6,0.4,2.4H250C250,53.8,249.8,53,249.2,52.4z"/>
<path class="st1" d="M266.5,61c-0.3,0.8-0.7,1.5-1.3,2.1c-0.6,0.6-1.2,1-2,1.3c-0.9,0.3-1.9,0.5-2.9,0.4c-0.7,0-1.4-0.1-2.1-0.2
	c-0.7-0.1-1.3-0.4-1.9-0.8c-0.5-0.4-1-0.8-1.3-1.4c-0.4-0.6-0.5-1.4-0.5-2.1c0-0.4,0-0.8,0.1-1.1l0.2-1.1l1.8-8.8h3.2l-1.8,8.8
	l-0.1,0.4c0,0.2-0.1,0.3-0.1,0.5s-0.1,0.4-0.1,0.5s0,0.3,0,0.4c0,0.2,0,0.4,0.1,0.6c0.1,0.3,0.2,0.5,0.4,0.7
	c0.2,0.2,0.5,0.4,0.8,0.5c0.4,0.2,0.9,0.2,1.4,0.2s1.1-0.1,1.6-0.3c0.4-0.2,0.7-0.4,1-0.8c0.3-0.4,0.5-0.8,0.6-1.2
	c0.1-0.5,0.3-1,0.4-1.6l1.8-9h3.2l-1.8,8.9C267.2,59.1,266.9,60.1,266.5,61z"/>
<path class="st1" d="M278.9,49.3c0.6,0,1.2,0,1.8,0.2c0.5,0.1,1,0.4,1.4,0.7s0.7,0.8,0.9,1.2c0.2,0.6,0.3,1.2,0.3,1.9
	c0,0.5-0.1,1-0.2,1.5c-0.2,0.5-0.4,0.9-0.7,1.2c-0.3,0.4-0.7,0.7-1.1,0.9s-0.9,0.4-1.4,0.5l0,0c0.5,0.1,1,0.5,1.2,1s0.3,1.1,0.3,1.6
	c0,0.3,0,0.7,0,1.2s0,1,0,1.4c0,0.3,0,0.7,0,1s0.1,0.5,0.2,0.8h-3.1c0-0.2-0.1-0.4-0.1-0.5c0-0.2,0-0.3,0-0.5c0-0.5,0-1,0.1-1.6
	s0.1-1,0.1-1.6c0-0.3,0-0.6-0.1-0.9c-0.1-0.2-0.2-0.4-0.4-0.6c-0.2-0.1-0.4-0.2-0.7-0.3c-0.3-0.1-0.6-0.1-0.9-0.1h-3l-1.2,6h-3.2
	l3-15.2L278.9,49.3z M276.8,56.2c0.4,0,0.8-0.1,1.2-0.2c0.4-0.1,0.7-0.2,1.1-0.4c0.3-0.2,0.6-0.4,0.7-0.8c0.2-0.3,0.3-0.7,0.3-1.1
	c0-0.3,0-0.7-0.2-1c-0.1-0.2-0.3-0.4-0.5-0.6c-0.2-0.1-0.5-0.2-0.8-0.3c-0.3,0-0.6-0.1-0.9-0.1h-3l-0.9,4.3L276.8,56.2z"/>
<path class="st1" d="M297.9,49.3l-0.5,2.8h-8l-0.7,3.3h7.4l-0.5,2.6h-7.4l-0.8,3.7h8.1l-0.6,2.8h-11.2l3-15.2L297.9,49.3z"/>
</svg>
